<?xml version="1.0" encoding="UTF-8" standalone="no"?>
<svg
   xmlns:dc="http://purl.org/dc/elements/1.1/"
   xmlns:cc="http://creativecommons.org/ns#"
   xmlns:rdf="http://www.w3.org/1999/02/22-rdf-syntax-ns#"
   xmlns:svg="http://www.w3.org/2000/svg"
   xmlns="http://www.w3.org/2000/svg"
   id="svg3849"
   version="1.1"
   viewBox="0 0 26.458335 23.692519"
   height="23.692518mm"
   width="26.458334mm">
  <defs
     id="defs3843" />
  <metadata
     id="metadata3846">
    <rdf:RDF>
      <cc:Work
         rdf:about="">
        <dc:format>image/svg+xml</dc:format>
        <dc:type
           rdf:resource="http://purl.org/dc/dcmitype/StillImage" />
        <dc:title></dc:title>
      </cc:Work>
    </rdf:RDF>
  </metadata>
  <g
     transform="translate(-92.226192,-96.921597)"
     id="layer1">
    <path
       id="path3768"
       style="fill:#00ffff;fill-opacity:1;fill-rule:nonzero;stroke:#000000;stroke-width:0.80375069;stroke-miterlimit:4;stroke-dasharray:none;stroke-opacity:1"
       d="m 105.45536,120.21224 c 6.64408,0 12.82729,-1.38716 12.82729,-8.78681 0,-9.60001 -6.67137,-14.101958 -12.82729,-14.101958 -6.155926,0 -12.827293,4.501948 -12.827293,14.102258 0,7.39935 6.183211,8.78651 12.827293,8.78651 z m 0,0" />
    <path
       id="path3770"
       style="fill:#fd99c7;fill-opacity:1;fill-rule:nonzero;stroke:none;stroke-width:0.07761987"
       d="m 112.0773,112.44055 h -1.54876 c -0.32139,0 -0.58214,-0.26045 -0.58214,-0.58215 0,-0.3214 0.26075,-0.58215 0.58214,-0.58215 h 1.54876 c 0.3214,0 0.58215,0.26075 0.58215,0.58215 0,0.3217 -0.26075,0.58215 -0.58215,0.58215 z m 0,0" />
    <path
       id="path3772"
       style="fill:#fd99c7;fill-opacity:1;fill-rule:nonzero;stroke:none;stroke-width:0.07761987"
       d="m 100.38217,112.44055 h -1.548758 c -0.321395,0 -0.582149,-0.26045 -0.582149,-0.58215 0,-0.3214 0.260754,-0.58215 0.582149,-0.58215 h 1.548758 c 0.3214,0 0.58215,0.26075 0.58215,0.58215 0,0.3217 -0.26075,0.58215 -0.58215,0.58215 z m 0,0" />
    <path
       id="path3774"
       style="fill:#000500;fill-opacity:1;fill-rule:nonzero;stroke:none;stroke-width:0.07761987"
       d="m 111.30747,110.76929 c 0.3214,0 0.58215,-0.26045 0.58215,-0.58214 v -1.13671 c 0,-0.3217 -0.26075,-0.58215 -0.58215,-0.58215 -0.32139,0 -0.58215,0.26045 -0.58215,0.58215 v 1.13671 c 0,0.32169 0.26076,0.58214 0.58215,0.58214 z m 0,0" />
    <path
       id="path3776"
       style="fill:#000000;fill-opacity:1;fill-rule:nonzero;stroke:#000000;stroke-width:0.07761987;stroke-opacity:1"
       d="m 99.612339,110.76929 c 0.321395,0 0.582151,-0.26045 0.582151,-0.58214 v -1.13671 c 0,-0.3217 -0.260756,-0.58215 -0.582151,-0.58215 -0.321697,0 -0.582149,0.26045 -0.582149,0.58215 v 1.13671 c 0,0.32169 0.260452,0.58214 0.582149,0.58214 z m 0,0" />
    <path
       id="path3778"
       style="fill:#000000;fill-opacity:1;fill-rule:nonzero;stroke:none;stroke-width:0.07761987"
       d="m 105.45991,112.37657 c 0.57547,0 1.11669,-0.24135 1.48417,-0.66189 0.21164,-0.24196 0.18708,-0.60974 -0.0552,-0.82138 -0.24195,-0.21163 -0.60974,-0.18677 -0.82138,0.0552 -0.14644,0.16767 -0.36808,0.26378 -0.60761,0.26378 -0.23954,0 -0.46118,-0.0961 -0.60762,-0.26378 -0.21164,-0.24196 -0.57942,-0.26682 -0.82138,-0.0552 -0.24226,0.21164 -0.26682,0.57942 -0.0552,0.82138 0.36748,0.42054 0.90839,0.66189 1.48418,0.66189 z m 0,0" />
  </g>
</svg>
